<svg width="69" height="81" viewBox="0 0 69 81" fill="none" xmlns="http://www.w3.org/2000/svg">
<g clip-path="url(#clip0_4918_4864)">
<path d="M59.3611 51.5454H65.7116C67.8954 46.7611 69 41.2437 69 34.9813C69 27.8203 67.5746 21.6342 64.7614 16.4037C61.9293 11.1732 57.9342 7.12349 52.7578 4.27394C47.5814 1.42438 41.486 0 34.4904 0C27.5511 0 21.4933 1.42438 16.3356 4.27394C11.1592 7.12349 7.14582 11.1732 4.2762 16.4037C1.4254 21.6342 0 27.8203 0 34.9813C0 42.1423 1.4254 48.3294 4.23865 53.5599C7.07071 58.7904 11.0653 62.8392 16.2418 65.6897C21.4182 68.5383 27.5136 69.9635 34.4904 69.9635C37.7823 69.9635 40.8732 69.6387 43.7685 68.9974L50.8741 81H61.7586V69.9635L39.9565 33.1364H29.072V44.1728L37.6826 58.7175C36.6524 58.8304 35.5834 58.8883 34.4738 58.8883C27.5908 58.8883 22.2643 56.7509 18.4944 52.4769C14.7246 48.203 12.8309 42.372 12.8309 34.9858C12.8309 27.5996 14.7246 21.7695 18.532 17.4947C22.3393 13.2208 27.6472 11.0834 34.4738 11.0834C41.3572 11.0834 46.6834 13.2208 50.4719 17.4947C54.2417 21.7695 56.136 27.5996 56.136 34.9858C56.136 38.3477 55.7421 41.3863 54.9555 44.1037L59.3611 51.5454Z" fill="#F0F6FF"/>
</g>
<defs>
<clipPath id="clip0_4918_4864">
<rect width="69" height="81" fill="white"/>
</clipPath>
</defs>
</svg>
