<svg width="69" height="81" viewBox="0 0 69 81" fill="none" xmlns="http://www.w3.org/2000/svg">
<g clip-path="url(#clip0_4918_4862)">
<path d="M62.0575 55.8169C66.4159 49.9828 69 42.7202 69 34.8488C69 15.6031 53.5531 0 34.5 0C15.4453 0 0 15.6031 0 34.8488C0 54.0962 15.4453 69.6977 34.5 69.6977C37.5961 69.6977 40.5955 69.2821 43.4503 68.5091L50.8674 81H61.807V69.9411L39.8946 33.0391H28.9551V44.098L35.6544 55.3802C35.2715 55.4017 34.8866 55.4127 34.5 55.4127C29.0618 55.4127 23.9497 53.2748 20.1041 49.3903C16.26 45.5058 14.142 40.3421 14.142 34.8488C14.142 29.3573 16.26 24.1919 20.1041 20.309C23.9497 16.4245 29.0618 14.285 34.5 14.285C39.9382 14.285 45.0502 16.4245 48.8959 20.309C52.7399 24.1919 54.858 29.3573 54.858 34.8488C54.858 37.2302 54.4595 39.5499 53.6929 41.7316L62.0575 55.8169Z" fill="#090A0F"/>
</g>
<defs>
<clipPath id="clip0_4918_4862">
<rect width="69" height="81" fill="white"/>
</clipPath>
</defs>
</svg>
