<svg width="83" height="92" viewBox="0 0 83 92" fill="none" xmlns="http://www.w3.org/2000/svg">
<g clip-path="url(#clip0_4930_46)">
<path d="M78.3325 61.2752V35.5414C81.0516 34.5648 83 31.9716 83 28.9166C83 25.0257 79.8454 21.8714 75.9541 21.8714C74.3714 21.8714 72.9156 22.3996 71.7393 23.2805L48.9608 8.42857C49.0499 7.98105 49.0984 7.51883 49.0984 7.04512C49.0984 3.15417 45.9439 0 42.0525 0C38.1611 0 35.0066 3.15417 35.0066 7.04512C35.0066 7.40041 35.0414 7.74677 35.0922 8.08799L11.5079 23.4654C10.2928 22.4697 8.73943 21.8715 7.04587 21.8715C3.15451 21.8715 0 25.0257 0 28.9166C0 32.0758 2.07974 34.7491 4.9449 35.643V61.1736C2.07974 62.0675 0 64.7407 0 67.9C0 71.7909 3.15451 74.9451 7.04587 74.9451C9.04669 74.9451 10.8486 74.1073 12.1311 72.7682L39.5308 91.169C39.5308 91.169 41.8259 93.0388 44.3334 91.169L71.3084 73.1875C72.5492 74.2784 74.172 74.9451 75.9541 74.9451C79.8454 74.9451 83 71.7909 83 67.9C83 64.845 81.0516 62.2518 78.3325 61.2752ZM69.3813 26.3944C69.0801 27.1784 68.9082 28.0265 68.9082 28.9166C68.9082 29.681 69.0338 30.4153 69.259 31.1046C63.2911 34.6282 54.5655 39.7829 49.9126 42.5447C49.5514 39.2182 47.1263 36.5187 43.945 35.7361V13.8257C45.1791 13.4819 46.2754 12.8135 47.137 11.9142L69.3813 26.3944ZM42.0525 47.4401C40.0759 47.4401 38.4736 45.838 38.4736 43.8616C38.4736 41.8853 40.0759 40.2831 42.0525 40.2831C44.029 40.2831 45.6314 41.8853 45.6314 43.8616C45.6314 45.838 44.029 47.4401 42.0525 47.4401ZM39.4978 13.6053V35.9284C36.6319 36.9073 34.5043 39.4786 34.1852 42.5914C29.9152 46.2338 15.5522 58.4884 11.209 62.2254C10.5894 61.7701 9.89751 61.4078 9.14683 61.1736V35.643C12.012 34.7491 14.0917 32.0758 14.0917 28.9166C14.0917 28.1316 13.958 27.3792 13.721 26.6741L36.755 11.6798C37.4953 12.5251 38.4326 13.1902 39.4978 13.6053ZM13.5906 65.3011L34.9029 46.7717C35.8101 48.695 37.4652 50.1913 39.4978 50.8855V86.4853L13.9866 69.0709C14.0506 68.6892 14.0917 68.2998 14.0917 67.9C14.0917 66.9811 13.9106 66.1059 13.5906 65.3011ZM43.945 86.5277V51.0778C45.8591 50.6069 47.5009 49.4467 48.5824 47.8666L71.282 34.1801C72.0882 34.8962 73.058 35.4278 74.1305 35.7149V61.1017C71.1248 61.9063 68.9082 64.6408 68.9082 67.9C68.9082 68.6374 69.0224 69.3479 69.2326 70.0159L43.945 86.5277Z" fill="#0B0700"/>
</g>
<defs>
<clipPath id="clip0_4930_46">
<rect width="83" height="92" fill="white"/>
</clipPath>
</defs>
</svg>
