<svg width="272" height="80" viewBox="0 0 272 80" fill="none" xmlns="http://www.w3.org/2000/svg">
<g clip-path="url(#clip0_4918_4835)">
<path d="M13.3875 46.8465V67.9044H0V3.02615H40.3646C54.9602 3.02615 66.536 9.7445 66.536 25.387C66.536 40.93 54.9602 46.8465 40.3646 46.8465H13.3875ZM13.3875 14.4575V36.217H41.5727C48.6186 36.217 53.1484 32.2063 53.1484 25.387C53.1484 18.2677 48.6186 14.4575 41.5727 14.4575H13.3875Z" fill="#090A0F"/>
<path d="M71.7896 67.9044V0.623852H85.136V67.9044H71.7896Z" fill="#090A0F"/>
<path d="M108.561 68.7851C102.878 68.7851 98.4295 67.4116 95.2134 64.6602C91.9973 61.9111 90.3896 58.293 90.3896 53.8074C90.3896 49.0556 92.0503 45.3971 95.3746 42.8342C98.6974 40.2713 103.467 38.9895 109.686 38.9895H123.515V37.1475C123.515 31.9689 120.406 29.3781 114.189 29.3781C108.774 29.3781 105.505 31.248 104.379 34.9849H91.1133C92.185 29.6986 94.6775 25.694 98.5907 22.9705C102.502 20.247 107.702 18.8853 114.189 18.8853C121.371 18.8853 126.852 20.4876 130.631 23.6914C134.41 26.8952 136.299 31.5685 136.299 37.7084V54.7687H142.571V67.9044H129.063V60.0551H125.686C124.024 62.8321 121.799 64.9807 119.013 66.503C116.225 68.0246 112.742 68.7851 108.561 68.7851ZM110.571 58.6934C113.089 58.6934 115.314 58.2402 117.244 57.3316C119.174 56.4245 120.701 55.2094 121.827 53.6871C122.953 52.1655 123.515 50.4437 123.515 48.521V47.8001H110.329C105.505 47.8001 103.093 49.5901 103.093 53.1665C103.093 54.9286 103.763 56.2903 105.103 57.2517C106.442 58.213 108.265 58.6934 110.571 58.6934Z" fill="#090A0F"/>
<path d="M148.392 67.9044V32.9823H141.798V19.8466H155.306V27.6959H158.683C160.559 24.9204 162.916 22.7703 165.759 21.248C168.598 19.7264 172.136 18.966 176.372 18.966C183.071 18.966 188.257 20.7955 191.929 24.4525C195.6 28.1102 197.437 33.0102 197.437 39.1501V67.9044H184.09V41.6331C184.09 38.1088 183.138 35.4257 181.236 33.5829C179.332 31.7408 176.559 30.8198 172.914 30.8198C169.268 30.8198 166.495 31.7408 164.593 33.5829C162.689 35.4257 161.738 38.1088 161.738 41.6331V67.9044H148.392Z" fill="#090A0F"/>
<path d="M262.318 50.9091H268.697C270.89 46.1838 272 40.7345 272 34.5495C272 27.4769 270.568 21.3671 267.742 16.2012C264.898 11.0352 260.885 7.03554 255.685 4.22117C250.485 1.4068 244.363 -1.90735e-06 237.336 -1.90735e-06C230.365 -1.90735e-06 224.28 1.40679 219.1 4.22117C213.9 7.03554 209.869 11.0352 206.986 16.2012C204.122 21.3671 202.691 27.4769 202.691 34.5495C202.691 41.622 204.122 47.7327 206.948 52.8987C209.793 58.0646 213.806 62.0634 219.005 64.8787C224.205 67.6921 230.328 69.0998 237.336 69.0998C240.642 69.0998 243.747 68.779 246.655 68.1456L253.793 80H264.726V69.0998L242.826 32.7273H231.893V43.6275L240.542 57.9926C239.507 58.1041 238.434 58.1612 237.319 58.1612C230.405 58.1612 225.055 56.0502 221.268 51.8291C217.481 47.6079 215.579 41.8489 215.579 34.5539C215.579 27.2589 217.481 21.5008 221.306 17.2787C225.13 13.0576 230.462 10.9466 237.319 10.9466C244.233 10.9466 249.583 13.0576 253.389 17.2787C257.176 21.5008 259.078 27.2589 259.078 34.5539C259.078 37.8743 258.683 40.8754 257.892 43.5592L262.318 50.9091Z" fill="#090A0F"/>
</g>
<defs>
<clipPath id="clip0_4918_4835">
<rect width="272" height="80" fill="white"/>
</clipPath>
</defs>
</svg>
